<svg width="364" height="272" viewBox="0 0 364 272" fill="none" xmlns="http://www.w3.org/2000/svg">
<rect width="364" height="272" fill="none"/>
<g style="mix-blend-mode:darken">
<g filter="url(#filter0_d)">
<path d="M54.725 80.1875V94.25H47.85C43.3708 94.25 40.0375 95.1354 37.85 96.9062C35.6625 98.6771 34.2042 101.385 33.475 105.031C32.85 108.573 32.5375 113.052 32.5375 118.469V134.875C32.5375 138.104 31.6 141.021 29.725 143.625C27.85 146.125 25.4021 148.156 22.3813 149.719C25.4021 151.281 27.85 153.312 29.725 155.812C31.6 158.312 32.5375 161.229 32.5375 164.562V180.969C32.5375 186.385 32.85 190.865 33.475 194.406C34.2042 198.052 35.6625 200.76 37.85 202.531C40.0375 204.302 43.3708 205.188 47.85 205.188H54.725V219.25H44.725C39.3083 219.25 34.5167 217.948 30.35 215.344C26.2875 212.844 23.1104 209.406 20.8188 205.031C18.5271 200.76 17.3813 196.021 17.3813 190.812V169.562C17.3813 164.875 16.6521 161.594 15.1938 159.719C13.7354 157.74 10.5583 156.75 5.66251 156.75V142.688C10.5583 142.688 13.7354 141.75 15.1938 139.875C16.6521 137.896 17.3813 134.562 17.3813 129.875V108.625C17.3813 103.312 18.5271 98.5208 20.8188 94.25C23.1104 89.9792 26.2875 86.5938 30.35 84.0938C34.5167 81.4896 39.3083 80.1875 44.725 80.1875H54.725ZM309.275 80.1875V94.25H316.15C320.629 94.25 323.962 95.1354 326.15 96.9062C328.337 98.6771 329.744 101.385 330.369 105.031C331.098 108.573 331.462 113.052 331.462 118.469V134.875C331.462 138.104 332.4 141.021 334.275 143.625C336.15 146.125 338.598 148.156 341.619 149.719C338.598 151.281 336.15 153.312 334.275 155.812C332.4 158.312 331.462 161.229 331.462 164.562V180.969C331.462 186.385 331.098 190.865 330.369 194.406C329.744 198.052 328.337 200.76 326.15 202.531C323.962 204.302 320.629 205.188 316.15 205.188H309.275V219.25H319.275C324.692 219.25 329.431 217.948 333.494 215.344C337.66 212.844 340.89 209.406 343.181 205.031C345.473 200.76 346.619 196.021 346.619 190.812V169.562C346.619 164.875 347.348 161.594 348.806 159.719C350.265 157.74 353.442 156.75 358.337 156.75V142.688C353.442 142.688 350.265 141.75 348.806 139.875C347.348 137.896 346.619 134.562 346.619 129.875V108.625C346.619 103.312 345.473 98.5208 343.181 94.25C340.89 89.9792 337.66 86.5938 333.494 84.0938C329.431 81.4896 324.692 80.1875 319.275 80.1875H309.275Z" fill="black"/>
<path d="M54.725 80.1875H55.725V79.1875H54.725V80.1875ZM54.725 94.25V95.25H55.725V94.25H54.725ZM33.475 105.031L32.4944 104.835L32.4922 104.846L32.4902 104.857L33.475 105.031ZM29.725 143.625L30.525 144.225L30.5308 144.217L30.5365 144.209L29.725 143.625ZM22.3813 149.719L21.9218 148.831L20.2046 149.719L21.9218 150.607L22.3813 149.719ZM33.475 194.406L32.4902 194.58L32.4922 194.591L32.4944 194.602L33.475 194.406ZM54.725 205.188H55.725V204.188H54.725V205.188ZM54.725 219.25V220.25H55.725V219.25H54.725ZM30.35 215.344L30.88 214.496L30.8741 214.492L30.35 215.344ZM20.8188 205.031L21.7046 204.567L21.6999 204.558L20.8188 205.031ZM15.1938 159.719L14.3887 160.312L14.3964 160.322L14.4044 160.333L15.1938 159.719ZM5.66251 156.75H4.66251V157.75H5.66251V156.75ZM5.66251 142.688V141.688H4.66251V142.688H5.66251ZM15.1938 139.875L15.9831 140.489L15.9911 140.479L15.9988 140.468L15.1938 139.875ZM30.35 84.0938L30.8741 84.9454L30.88 84.9417L30.35 84.0938ZM53.725 80.1875V94.25H55.725V80.1875H53.725ZM54.725 93.25H47.85V95.25H54.725V93.25ZM47.85 93.25C43.2687 93.25 39.6648 94.1505 37.2208 96.129L38.4792 97.6835C40.4102 96.1203 43.473 95.25 47.85 95.25V93.25ZM37.2208 96.129C34.8008 98.088 33.2545 101.035 32.4944 104.835L34.4556 105.227C35.1538 101.736 36.5242 99.2661 38.4792 97.6835L37.2208 96.129ZM32.4902 104.857C31.8514 108.477 31.5375 113.02 31.5375 118.469H33.5375C33.5375 113.084 33.8486 108.668 34.4598 105.205L32.4902 104.857ZM31.5375 118.469V134.875H33.5375V118.469H31.5375ZM31.5375 134.875C31.5375 137.896 30.6651 140.608 28.9135 143.041L30.5365 144.209C32.5349 141.434 33.5375 138.312 33.5375 134.875H31.5375ZM28.925 143.025C27.1482 145.394 24.8209 147.331 21.9218 148.831L22.8407 150.607C25.9833 148.981 28.5519 146.856 30.525 144.225L28.925 143.025ZM21.9218 150.607C24.8209 152.106 27.1482 154.043 28.925 156.412L30.525 155.213C28.5519 152.582 25.9833 150.456 22.8407 148.831L21.9218 150.607ZM28.925 156.412C30.6613 158.728 31.5375 161.43 31.5375 164.562H33.5375C33.5375 161.028 32.5387 157.897 30.525 155.213L28.925 156.412ZM31.5375 164.562V180.969H33.5375V164.562H31.5375ZM31.5375 180.969C31.5375 186.418 31.8514 190.96 32.4902 194.58L34.4598 194.232C33.8486 190.769 33.5375 186.353 33.5375 180.969H31.5375ZM32.4944 194.602C33.2545 198.403 34.8008 201.349 37.2208 203.308L38.4792 201.754C36.5242 200.171 35.1538 197.701 34.4556 194.21L32.4944 194.602ZM37.2208 203.308C39.6648 205.287 43.2687 206.188 47.85 206.188V204.188C43.473 204.188 40.4102 203.317 38.4792 201.754L37.2208 203.308ZM47.85 206.188H54.725V204.188H47.85V206.188ZM53.725 205.188V219.25H55.725V205.188H53.725ZM54.725 218.25H44.725V220.25H54.725V218.25ZM44.725 218.25C39.4759 218.25 34.8717 216.991 30.88 214.496L29.82 216.192C34.1616 218.905 39.1408 220.25 44.725 220.25V218.25ZM30.8741 214.492C26.9704 212.09 23.9158 208.789 21.7046 204.567L19.9329 205.495C22.305 210.024 25.6046 213.598 29.8259 216.195L30.8741 214.492ZM21.6999 204.558C19.492 200.444 18.3813 195.868 18.3813 190.812H16.3813C16.3813 196.173 17.5621 201.077 19.9376 205.504L21.6999 204.558ZM18.3813 190.812V169.562H16.3813V190.812H18.3813ZM18.3813 169.562C18.3813 164.836 17.6588 161.259 15.9831 159.105L14.4044 160.333C15.6454 161.928 16.3813 164.914 16.3813 169.562H18.3813ZM15.9988 159.126C14.2297 156.725 10.5887 155.75 5.66251 155.75V157.75C10.528 157.75 13.2411 158.755 14.3887 160.312L15.9988 159.126ZM6.66251 156.75V142.688H4.66251V156.75H6.66251ZM5.66251 143.688C8.16509 143.688 10.2873 143.449 12.0002 142.943C13.7125 142.438 15.0837 141.645 15.9831 140.489L14.4044 139.261C13.8455 139.98 12.899 140.593 11.4342 141.025C9.97005 141.457 8.05576 141.688 5.66251 141.688V143.688ZM15.9988 140.468C17.6555 138.22 18.3813 134.611 18.3813 129.875H16.3813C16.3813 134.514 15.6487 137.572 14.3887 139.282L15.9988 140.468ZM18.3813 129.875V108.625H16.3813V129.875H18.3813ZM18.3813 108.625C18.3813 103.461 19.4936 98.8346 21.6999 94.7228L19.9376 93.7772C17.5606 98.207 16.3813 103.164 16.3813 108.625H18.3813ZM21.6999 94.7228C23.9095 90.6049 26.9645 87.3513 30.8741 84.9454L29.8259 83.2421C25.6105 85.8362 22.3113 89.3534 19.9376 93.7772L21.6999 94.7228ZM30.88 84.9417C34.8717 82.4469 39.4759 81.1875 44.725 81.1875V79.1875C39.1408 79.1875 34.1616 80.5322 29.82 83.2458L30.88 84.9417ZM44.725 81.1875H54.725V79.1875H44.725V81.1875ZM309.275 80.1875V79.1875H308.275V80.1875H309.275ZM309.275 94.25H308.275V95.25H309.275V94.25ZM330.369 105.031L329.383 105.2L329.386 105.217L329.389 105.233L330.369 105.031ZM334.275 143.625L333.463 144.209L333.469 144.217L333.475 144.225L334.275 143.625ZM341.619 149.719L342.078 150.607L343.795 149.719L342.078 148.831L341.619 149.719ZM330.369 194.406L329.389 194.205L329.386 194.221L329.383 194.237L330.369 194.406ZM309.275 205.188V204.188H308.275V205.188H309.275ZM309.275 219.25H308.275V220.25H309.275V219.25ZM333.494 215.344L332.979 214.486L332.967 214.494L332.954 214.502L333.494 215.344ZM343.181 205.031L342.3 204.558L342.295 204.567L343.181 205.031ZM348.806 159.719L349.596 160.333L349.604 160.322L349.611 160.312L348.806 159.719ZM358.337 156.75V157.75H359.337V156.75H358.337ZM358.337 142.688H359.337V141.688H358.337V142.688ZM348.806 139.875L348.001 140.468L348.009 140.479L348.017 140.489L348.806 139.875ZM343.181 94.25L342.3 94.7228L343.181 94.25ZM333.494 84.0938L332.954 84.9356L332.967 84.9436L332.979 84.9512L333.494 84.0938ZM308.275 80.1875V94.25H310.275V80.1875H308.275ZM309.275 95.25H316.15V93.25H309.275V95.25ZM316.15 95.25C320.527 95.25 323.59 96.1203 325.521 97.6835L326.779 96.129C324.335 94.1505 320.731 93.25 316.15 93.25V95.25ZM325.521 97.6835C327.467 99.2589 328.786 101.717 329.383 105.2L331.354 104.862C330.701 101.054 329.208 98.0953 326.779 96.129L325.521 97.6835ZM329.389 105.233C330.1 108.684 330.462 113.09 330.462 118.469H332.462C332.462 113.014 332.096 108.462 331.348 104.83L329.389 105.233ZM330.462 118.469V134.875H332.462V118.469H330.462ZM330.462 134.875C330.462 138.312 331.465 141.434 333.463 144.209L335.087 143.041C333.335 140.608 332.462 137.896 332.462 134.875H330.462ZM333.475 144.225C335.448 146.856 338.017 148.981 341.159 150.607L342.078 148.831C339.179 147.331 336.852 145.394 335.075 143.025L333.475 144.225ZM341.159 148.831C338.017 150.456 335.448 152.582 333.475 155.213L335.075 156.412C336.852 154.043 339.179 152.106 342.078 150.607L341.159 148.831ZM333.475 155.213C331.461 157.897 330.462 161.028 330.462 164.562H332.462C332.462 161.43 333.339 158.728 335.075 156.412L333.475 155.213ZM330.462 164.562V180.969H332.462V164.562H330.462ZM330.462 180.969C330.462 186.348 330.1 190.753 329.389 194.205L331.348 194.608C332.096 190.976 332.462 186.423 332.462 180.969H330.462ZM329.383 194.237C328.786 197.72 327.467 200.179 325.521 201.754L326.779 203.308C329.208 201.342 330.701 198.384 331.354 194.575L329.383 194.237ZM325.521 201.754C323.59 203.317 320.527 204.188 316.15 204.188V206.188C320.731 206.188 324.335 205.287 326.779 203.308L325.521 201.754ZM316.15 204.188H309.275V206.188H316.15V204.188ZM308.275 205.188V219.25H310.275V205.188H308.275ZM309.275 220.25H319.275V218.25H309.275V220.25ZM319.275 220.25C324.859 220.25 329.791 218.905 334.033 216.186L332.954 214.502C329.072 216.99 324.525 218.25 319.275 218.25V220.25ZM334.008 216.201C338.335 213.605 341.692 210.03 344.067 205.495L342.295 204.567C340.088 208.782 336.986 212.082 332.979 214.486L334.008 216.201ZM344.062 205.504C346.438 201.077 347.619 196.173 347.619 190.812H345.619C345.619 195.868 344.508 200.444 342.3 204.558L344.062 205.504ZM347.619 190.812V169.562H345.619V190.812H347.619ZM347.619 169.562C347.619 164.914 348.355 161.928 349.596 160.333L348.017 159.105C346.341 161.259 345.619 164.836 345.619 169.562H347.619ZM349.611 160.312C350.759 158.755 353.472 157.75 358.337 157.75V155.75C353.411 155.75 349.77 156.725 348.001 159.126L349.611 160.312ZM359.337 156.75V142.688H357.337V156.75H359.337ZM358.337 141.688C355.944 141.688 354.03 141.457 352.566 141.025C351.101 140.593 350.154 139.98 349.596 139.261L348.017 140.489C348.916 141.645 350.288 142.438 352 142.943C353.713 143.449 355.835 143.688 358.337 143.688V141.688ZM349.611 139.282C348.351 137.572 347.619 134.514 347.619 129.875H345.619C345.619 134.611 346.345 138.22 348.001 140.468L349.611 139.282ZM347.619 129.875V108.625H345.619V129.875H347.619ZM347.619 108.625C347.619 103.164 346.439 98.207 344.062 93.7772L342.3 94.7228C344.506 98.8346 345.619 103.461 345.619 108.625H347.619ZM344.062 93.7772C341.685 89.347 338.329 85.8288 334.008 83.2363L332.979 84.9512C336.992 87.3587 340.094 90.6114 342.3 94.7228L344.062 93.7772ZM334.033 83.2519C329.791 80.5321 324.859 79.1875 319.275 79.1875V81.1875C324.525 81.1875 329.072 82.447 332.954 84.9356L334.033 83.2519ZM319.275 79.1875H309.275V81.1875H319.275V79.1875Z" fill="black"/>
</g>
<path opacity="0.15" d="M175.129 271.547C223.857 271.547 263.36 267.158 263.36 261.744C263.36 256.329 223.857 251.94 175.129 251.94C126.401 251.94 86.8983 256.329 86.8983 261.744C86.8983 267.158 126.401 271.547 175.129 271.547Z" fill="#27211A"/>
<path d="M199.311 133.646C205.846 148.677 199.311 166.324 184.279 173.513L84.2841 218.609V176.127C84.2841 173.513 85.5912 171.552 88.2054 170.245L182.318 127.11C188.854 124.496 196.043 127.11 199.311 133.646Z" fill="#DBC899" stroke="#27211A" stroke-width="4" stroke-miterlimit="10" stroke-linecap="round" stroke-linejoin="round"/>
<path d="M165.326 158.481C162.711 159.788 160.097 158.481 158.79 155.867L152.254 140.835L201.271 118.614C204.539 117.307 208.461 118.614 209.768 121.881C213.036 129.071 209.768 138.221 202.579 141.488L165.326 158.481Z" fill="#617AFF"/>
<path d="M201.271 128.417C204.539 127.11 208.461 128.417 209.768 131.685C209.768 132.338 209.768 132.338 210.421 132.992C211.728 129.724 211.728 125.803 209.768 121.881C208.461 118.614 204.539 117.307 201.271 118.614L152.254 140.835L156.176 149.331L201.271 128.417Z" fill="#87BEFF"/>
<path d="M165.326 158.481C162.711 159.788 160.097 158.481 158.79 155.867L152.254 140.835L201.271 118.614C204.539 117.307 208.461 118.614 209.768 121.881C213.036 129.071 209.768 138.221 202.579 141.488L165.326 158.481Z" stroke="#27211A" stroke-width="4" stroke-miterlimit="10" stroke-linecap="round" stroke-linejoin="round"/>
<path d="M84.2841 241.483L207.154 185.277C222.185 178.741 228.721 160.442 222.185 145.41C219.571 138.874 211.729 136.26 205.846 138.874L84.2841 195.08V241.483Z" fill="#DBC899"/>
<path d="M224.146 152.599C221.532 160.442 216.303 167.631 207.807 171.552L84.2841 227.758V242.137L207.154 185.93C220.225 180.048 226.76 165.67 224.146 152.599Z" fill="#AEA17F"/>
<path d="M84.2841 241.483L207.154 185.277C222.185 178.741 228.721 160.442 222.185 145.41C219.571 138.874 211.729 136.26 205.846 138.874L84.2841 195.08V241.483Z" stroke="#27211A" stroke-width="4" stroke-miterlimit="10" stroke-linecap="round" stroke-linejoin="round"/>
<path d="M188.2 170.899C185.586 172.206 182.972 170.899 181.665 168.284L175.129 153.252L224.146 131.031C227.414 129.724 231.335 131.031 232.642 134.299C235.91 141.488 232.642 150.638 225.453 153.906L188.2 170.899Z" fill="#617AFF"/>
<path d="M224.8 141.488C228.068 140.181 231.989 141.488 233.296 144.756C233.296 145.41 233.296 145.41 233.95 146.063C235.257 142.795 235.257 138.874 233.296 134.953C231.989 131.685 228.068 130.378 224.8 131.685L175.129 153.906L179.05 162.402L224.8 141.488Z" fill="#87BEFF"/>
<path d="M188.2 170.899C185.586 172.206 182.972 170.899 181.665 168.284L175.129 153.252L224.146 131.031C227.414 129.724 231.335 131.031 232.642 134.299C235.91 141.488 232.642 150.638 225.453 153.906L188.2 170.899Z" stroke="#27211A" stroke-width="4" stroke-miterlimit="10" stroke-linecap="round" stroke-linejoin="round"/>
<path d="M84.2841 255.862C84.2841 257.822 85.5912 259.783 86.8983 261.09C88.859 262.397 90.8197 262.397 92.7804 262.397L207.154 227.105C222.839 222.53 231.989 205.537 226.76 189.852C224.8 183.316 217.611 179.395 211.075 181.356L84.2841 220.569V255.862Z" fill="#DBC899"/>
<path d="M209.768 212.726L84.2841 251.287V255.862C84.2841 257.822 85.5912 259.783 86.8983 261.09C88.859 262.397 90.8197 262.397 92.7804 262.397L207.154 227.105C220.878 223.183 229.375 210.112 228.068 196.387C224.8 203.577 218.264 210.112 209.768 212.726Z" fill="#AEA17F"/>
<path d="M84.2841 255.862C84.2841 257.822 85.5912 259.783 86.8983 261.09C88.859 262.397 90.8197 262.397 92.7804 262.397L207.154 227.105C222.839 222.53 231.989 205.537 226.76 189.852C224.8 183.316 217.611 179.395 211.075 181.356L84.2841 220.569V255.862Z" stroke="#27211A" stroke-width="4" stroke-miterlimit="10" stroke-linecap="round" stroke-linejoin="round"/>
<path d="M190.815 209.459C188.2 210.112 185.586 208.805 184.933 206.191L180.358 190.505L231.989 174.166C235.257 172.859 239.178 174.82 240.485 178.741C243.099 186.584 238.525 195.08 230.682 197.041L190.815 209.459Z" fill="#617AFF"/>
<path d="M230.028 184.623C233.296 183.316 237.217 185.277 238.525 189.198C238.525 189.852 238.525 189.852 238.525 190.505C240.485 187.238 240.485 183.316 239.832 179.395C238.525 176.127 235.257 174.166 231.335 174.82L179.704 191.159L182.318 199.655L230.028 184.623Z" fill="#87BEFF"/>
<path d="M190.815 209.459C188.2 210.112 185.586 208.805 184.933 206.191L180.358 190.505L231.989 174.166C235.257 172.859 239.178 174.82 240.485 178.741C243.099 186.584 238.525 195.08 230.682 197.041L190.815 209.459Z" stroke="#27211A" stroke-width="4" stroke-miterlimit="10" stroke-linecap="round" stroke-linejoin="round"/>
<path d="M286.235 66.9823L258.785 53.9111C257.478 53.2576 256.171 51.2969 257.478 49.3362L274.47 14.6975C277.738 8.16184 285.581 5.5476 292.117 8.8154L301.92 13.3903C308.456 16.6581 311.07 24.5009 307.802 31.0365L290.809 65.6752C290.156 66.9823 288.195 67.6359 286.235 66.9823Z" fill="#617AFF"/>
<path d="M259.439 53.9111L263.36 55.8718L274.47 32.3436C277.738 25.808 285.581 23.1937 292.117 26.4616L301.92 31.0365C303.881 31.69 305.188 32.9972 306.495 34.9579L307.802 31.69C311.07 25.1544 308.456 17.3117 301.92 14.0439L292.117 9.46897C285.581 6.20116 277.738 8.81541 274.47 15.351L257.478 49.3362C256.824 51.2969 257.478 53.2576 259.439 53.9111Z" fill="#87BEFF"/>
<path d="M286.235 66.9823L258.785 53.9111C257.478 53.2576 256.171 51.2969 257.478 49.3362L274.47 14.6975C277.738 8.16184 285.581 5.5476 292.117 8.8154L301.92 13.3903C308.456 16.6581 311.07 24.5009 307.802 31.0365L290.809 65.6752C290.156 66.9823 288.195 67.6359 286.235 66.9823Z" stroke="#27211A" stroke-width="4" stroke-miterlimit="10" stroke-linecap="round" stroke-linejoin="round"/>
<path d="M278.317 63.3297L267.132 57.9367L242.154 109.745L253.339 115.138L278.317 63.3297Z" fill="#F0F0F0" stroke="#27211A" stroke-width="4" stroke-miterlimit="10" stroke-linecap="round" stroke-linejoin="round"/>
<path d="M254.21 117.96C250.289 127.764 239.832 137.567 218.918 132.992C228.721 125.803 232.642 116.653 235.91 109.464C238.525 104.889 244.407 102.275 248.981 104.889C254.864 107.503 256.824 113.385 254.21 117.96Z" fill="#617AFF"/>
<path d="M228.068 124.496C226.107 127.764 222.839 130.378 219.571 132.992C240.485 137.567 250.289 127.11 254.864 117.96C256.171 114.692 256.171 111.425 254.864 108.81C250.289 116.653 242.446 125.149 228.068 124.496Z" fill="#4E36E0"/>
<path d="M254.21 117.96C250.289 127.764 239.832 137.567 218.918 132.992C228.721 125.803 232.642 116.653 235.91 109.464C238.525 104.889 244.407 102.275 248.981 104.889C254.864 107.503 256.824 113.385 254.21 117.96Z" stroke="#27211A" stroke-width="4" stroke-miterlimit="10" stroke-linecap="round" stroke-linejoin="round"/>
</g>
<defs>
<filter id="filter0_d" x="0.662506" y="79.1875" width="362.675" height="149.062" filterUnits="userSpaceOnUse" color-interpolation-filters="sRGB">
<feFlood flood-opacity="0" result="BackgroundImageFix"/>
<feColorMatrix in="SourceAlpha" type="matrix" values="0 0 0 0 0 0 0 0 0 0 0 0 0 0 0 0 0 0 127 0"/>
<feOffset dy="4"/>
<feGaussianBlur stdDeviation="2"/>
<feColorMatrix type="matrix" values="0 0 0 0 0 0 0 0 0 0 0 0 0 0 0 0 0 0 0.25 0"/>
<feBlend mode="normal" in2="BackgroundImageFix" result="effect1_dropShadow"/>
<feBlend mode="normal" in="SourceGraphic" in2="effect1_dropShadow" result="shape"/>
</filter>
</defs>
</svg>
